<svg width="60" height="59" viewBox="0 0 60 59" fill="none" xmlns="http://www.w3.org/2000/svg">
<ellipse cx="30.3403" cy="29.4753" rx="23.4858" ry="23.5143" fill="url(#paint0_linear_5_8137)"/>
<path d="M25.1047 15.6632L40.5785 12.5878C41.2836 12.4477 41.9408 12.9872 41.9408 13.706V37.4149C41.9408 39.4332 40.5293 41.1765 38.5552 41.5966L37.1882 41.8874C34.8067 42.3941 32.5636 40.5781 32.5636 38.1433C32.5636 36.4282 33.7196 34.9286 35.3783 34.4921L39.2527 33.4725C39.7786 33.3341 40.1452 32.8586 40.1452 32.3148V21.3072C40.1452 20.8011 39.6802 20.4228 39.1847 20.5258L26.2901 23.2058C25.8934 23.2883 25.6091 23.6378 25.6091 24.043V40.4812C25.6091 42.6889 24.0644 44.5957 21.9047 45.0538L20.9672 45.2526C18.5135 45.7731 16.2033 43.9016 16.2033 41.3933C16.2033 39.7947 17.2793 38.3963 18.8245 37.9866L22.88 36.9112C23.3799 36.7787 23.7279 36.3263 23.7279 35.8092V17.3405C23.7279 16.5246 24.3044 15.8223 25.1047 15.6632Z" fill="url(#paint1_radial_5_8137)"/>
<path fill-rule="evenodd" clip-rule="evenodd" d="M56.1064 29.4469C56.1064 43.677 44.5706 55.2128 30.3404 55.2128C16.1103 55.2128 4.57446 43.677 4.57446 29.4469C4.57446 15.2167 16.1103 3.68091 30.3404 3.68091C44.5706 3.68091 56.1064 15.2167 56.1064 29.4469ZM53.8262 29.4754C53.8262 42.4619 43.3113 52.9897 30.3404 52.9897C17.3696 52.9897 6.85464 42.4619 6.85464 29.4754C6.85464 16.4888 17.3696 5.96108 30.3404 5.96108C43.3113 5.96108 53.8262 16.4888 53.8262 29.4754Z" fill="url(#paint2_radial_5_8137)"/>
<defs>
<linearGradient id="paint0_linear_5_8137" x1="30.3403" y1="5.96106" x2="30.3403" y2="52.9896" gradientUnits="userSpaceOnUse">
<stop stop-color="white"/>
<stop offset="1" stop-color="#DDE2E7"/>
</linearGradient>
<radialGradient id="paint1_radial_5_8137" cx="0" cy="0" r="1" gradientUnits="userSpaceOnUse" gradientTransform="translate(16.2033 51.0515) rotate(-55.1325) scale(51.552 40.4833)">
<stop stop-color="#7A66FB"/>
<stop offset="0.440198" stop-color="#52A2F4"/>
<stop offset="0.702" stop-color="#FC5D6D"/>
<stop offset="1" stop-color="#E85E7B"/>
</radialGradient>
<radialGradient id="paint2_radial_5_8137" cx="0" cy="0" r="1" gradientUnits="userSpaceOnUse" gradientTransform="translate(16.2033 51.0515) rotate(-55.1325) scale(51.552 40.4833)">
<stop stop-color="#7A66FB"/>
<stop offset="0.440198" stop-color="#52A2F4"/>
<stop offset="0.702" stop-color="#FC5D6D"/>
<stop offset="1" stop-color="#E85E7B"/>
</radialGradient>
</defs>
</svg>
