<svg width="59" height="59" viewBox="0 0 59 59" fill="none" xmlns="http://www.w3.org/2000/svg">
<circle cx="29.4468" cy="29.4469" r="25.766" fill="#FF5502"/>
<path d="M44.0418 38.649H28.976V20.448C30.3719 19.1733 32.1798 18.4043 34.1548 18.4043C38.5255 18.4043 42.0778 22.1703 42.1572 26.8483C42.7466 26.6241 43.381 26.5022 44.0418 26.5022C47.162 26.5022 49.6915 29.2213 49.6915 32.5756C49.6915 35.9298 47.162 38.649 44.0418 38.649Z" fill="white"/>
<path d="M27.6064 22.0851H25.7659V38.649H27.6064V22.0851Z" fill="white"/>
<path d="M22.0851 23.9256H23.9255V38.649H22.0851V23.9256Z" fill="white"/>
<path d="M20.2447 27.6064H18.4042V38.649H20.2447V27.6064Z" fill="white"/>
<path d="M14.7234 25.766H16.5638V38.649H14.7234V25.766Z" fill="white"/>
<path d="M12.883 29.4468H11.0425V38.649H12.883V29.4468Z" fill="white"/>
</svg>
