<svg width="60" height="59" viewBox="0 0 60 59" fill="none" xmlns="http://www.w3.org/2000/svg">
<circle cx="30.1276" cy="29.4469" r="25.766" fill="#1ED760"/>
<path d="M41.8407 39.7955C41.4004 40.494 40.4613 40.6895 39.7277 40.2704C33.9464 36.9177 26.6977 36.1634 18.1284 38.0074C17.3067 38.175 16.485 37.7 16.3089 36.9177C16.1328 36.1354 16.6317 35.3531 17.4534 35.1855C26.8151 33.1459 34.8561 34.0121 41.3124 37.7839C42.0461 38.2029 42.2809 39.097 41.8407 39.7955ZM44.834 33.4253C44.2764 34.2915 43.1026 34.5429 42.1928 34.04C35.5898 30.1565 25.5238 29.0389 17.7175 31.302C16.6904 31.5814 15.6339 31.0505 15.3405 30.1006C15.047 29.1227 15.6046 28.1169 16.6317 27.8375C25.5532 25.2671 36.6463 26.4964 44.2471 30.9388C45.0981 31.4417 45.3916 32.5592 44.834 33.4253ZM45.0981 26.7758C37.1745 22.3055 24.1152 21.8864 16.5437 24.0657C15.3405 24.4289 14.0492 23.7863 13.6677 22.6129C13.2862 21.4674 13.9905 20.238 15.1937 19.8748C23.8804 17.3603 38.319 17.8632 47.4165 23.004C48.5024 23.6187 48.8545 24.9598 48.2089 25.9935C47.5926 27.0552 46.184 27.4184 45.0981 26.7758Z" fill="white"/>
</svg>
